HIERARCHY
ROOT Hips
{
	OFFSET 0.000000 0.000000 0.000000
	CHANNELS 6 Xposition Yposition Zposition Xrotation Yrotation Zrotation
	JOINT LeftUpLeg_virtual
	{
		OFFSET 0.000000 0.000000 0.000000
		CHANNELS 3 Xrotation Yrotation Zrotation
		JOINT LeftUpLeg
		{
			OFFSET 13.026900 -6.336304 -1.092800
			CHANNELS 3 Xrotation Yrotation Zrotation
			JOINT LeftLeg
			{
				OFFSET 0.524474 -46.096886 9.782700
				CHANNELS 3 Xrotation Yrotation Zrotation
				JOINT LeftFoot
				{
					OFFSET -0.524474 -53.427422 -12.948200
					CHANNELS 3 Xrotation Yrotation Zrotation
					JOINT LeftToeBase
					{
						OFFSET 0.192200 -14.009700 16.364100
						CHANNELS 3 Xrotation Yrotation Zrotation
						JOINT LeftToe_End
						{
							OFFSET -1.784700 -0.561700 9.474800
							CHANNELS 3 Xrotation Yrotation Zrotation
							End Site
							{
								OFFSET 0 0 0
							}
						}
					}
				}
			}
		}
	}
	JOINT RightUpLeg_virtual
	{
		OFFSET 0.000000 0.000000 0.000000
		CHANNELS 3 Xrotation Yrotation Zrotation
		JOINT RightUpLeg
		{
			OFFSET -12.883000 -6.336304 -1.092800
			CHANNELS 3 Xrotation Yrotation Zrotation
			JOINT RightLeg
			{
				OFFSET -0.524587 -46.096825 9.782800
				CHANNELS 3 Xrotation Yrotation Zrotation
				JOINT RightFoot
				{
					OFFSET 0.524587 -53.427383 -12.948300
					CHANNELS 3 Xrotation Yrotation Zrotation
					JOINT RightToeBase
					{
						OFFSET -0.192200 -14.009700 16.364100
						CHANNELS 3 Xrotation Yrotation Zrotation
						JOINT RightToe_End
						{
							OFFSET 1.784700 -0.561700 9.474800
							CHANNELS 3 Xrotation Yrotation Zrotation
							End Site
							{
								OFFSET 0 0 0
							}
						}
					}
				}
			}
		}
	}
	JOINT Spine_virtual
	{
		OFFSET 0.000000 0.000000 0.000000
		CHANNELS 3 Xrotation Yrotation Zrotation
		JOINT Spine
		{
			OFFSET 0.072000 7.257294 -0.789700
			CHANNELS 3 Xrotation Yrotation Zrotation
			JOINT Spine1
			{
				OFFSET 0.000000 12.508769 -0.658067
				CHANNELS 3 Xrotation Yrotation Zrotation
				JOINT Spine1_split
				{
					OFFSET 0.000000 12.508769 -0.658067
					CHANNELS 3 Xrotation Yrotation Zrotation
					JOINT Spine2
					{
						OFFSET 0.000000 12.508769 -0.658067
						CHANNELS 3 Xrotation Yrotation Zrotation
						JOINT Neck_virtual
						{
							OFFSET 0.000000 0.000000 0.000000
							CHANNELS 3 Xrotation Yrotation Zrotation
							JOINT Neck
							{
								OFFSET 0.000000 14.033295 7.520400
								CHANNELS 3 Xrotation Yrotation Zrotation
								JOINT Head
								{
									OFFSET 0.000000 8.198502 5.703100
									CHANNELS 3 Xrotation Yrotation Zrotation
									JOINT HeadTop_End
									{
										OFFSET 0.000000 17.760803 13.332701
										CHANNELS 3 Xrotation Yrotation Zrotation
										End Site
										{
											OFFSET 0 0 0
										}
									}
								}
							}
						}
						JOINT LeftShoulder_virtual
						{
							OFFSET 0.000000 0.000000 0.000000
							CHANNELS 3 Xrotation Yrotation Zrotation
							JOINT LeftShoulder
							{
								OFFSET 6.292450 5.785301 -0.669000
								CHANNELS 3 Xrotation Yrotation Zrotation
								JOINT LeftShoulder_split
								{
									OFFSET 6.292450 5.785301 -0.669000
									CHANNELS 3 Xrotation Yrotation Zrotation
									JOINT LeftArm
									{
										OFFSET 13.907140 -6.093903 1.965100
										CHANNELS 3 Xrotation Yrotation Zrotation
										JOINT LeftForeArm
										{
											OFFSET 34.140198 0.000000 0.000000
											CHANNELS 3 Xrotation Yrotation Zrotation
											JOINT LeftHand
											{
												OFFSET 40.960209 0.000000 0.000000
												CHANNELS 3 Xrotation Yrotation Zrotation
												End Site
												{
													OFFSET 0 0 0
												}
											}
										}
									}
								}
							}
						}
						JOINT RightShoulder_virtual
						{
							OFFSET 0.000000 0.000000 0.000000
							CHANNELS 3 Xrotation Yrotation Zrotation
							JOINT RightShoulder
							{
								OFFSET -6.292450 5.785301 -0.669000
								CHANNELS 3 Xrotation Yrotation Zrotation
								JOINT RightShoulder_split
								{
									OFFSET -6.292450 5.785301 -0.669000
									CHANNELS 3 Xrotation Yrotation Zrotation
									JOINT RightArm
									{
										OFFSET -13.907140 -6.093903 1.965100
										CHANNELS 3 Xrotation Yrotation Zrotation
										JOINT RightForeArm
										{
											OFFSET -34.140198 0.000000 0.000000
											CHANNELS 3 Xrotation Yrotation Zrotation
											JOINT RightHand
											{
												OFFSET -40.960209 0.000000 0.000000
												CHANNELS 3 Xrotation Yrotation Zrotation
												End Site
												{
													OFFSET 0 0 0
												}
											}
										}
									}
								}
							}
						}
					}
				}
			}
		}
	}
}
MOTION
Frames: 10
Frame Time: 0.03333333
93.506660 86.603920 208.117157 0.000000 0.000000 0.000000 114.950663 71.088677 -94.230280 -61.871822 -22.222338 27.931295 88.252198 0.073469 -35.328559 -13.555101 1.467753 17.007827 -57.635479 -17.551433 7.020491 0.000000 0.000000 0.000000 169.531907 71.458983 -158.449843 -84.420414 -7.457464 -49.035690 82.610086 12.385571 -18.146115 -18.974518 -26.868033 55.512301 -24.721909 4.854746 -15.632112 0.000000 0.000000 0.000000 105.104495 68.107709 -85.707522 34.428583 14.354092 23.210588 6.701674 13.157636 2.433959 -0.104655 6.400315 -0.721110 0.000000 0.000000 0.000000 15.663755 14.596138 0.294628 -15.468162 47.054584 55.756450 -172.708942 2.913982 -150.646461 0.000000 0.000000 0.000000 29.084947 10.755601 0.718619 8.312815 -6.223918 11.858120 -24.199779 -3.420612 -0.875036 -27.964651 -73.802530 -17.488173 14.355517 27.634153 4.030761 0.000000 0.000000 0.000000 30.895821 10.744604 -13.622492 -7.409331 -3.109696 -8.501934 -20.933618 -26.262774 15.383393 -62.849174 13.882352 7.233664 22.293825 31.631149 14.153720 0.000000 0.000000 0.000000 
102.785759 80.620308 220.359146 0.000000 0.000000 0.000000 -157.221843 62.341117 -162.597776 -74.250099 -20.428268 21.877192 80.482592 0.390084 -32.186703 -5.783861 6.301597 14.886076 -50.591239 -17.079578 7.829973 0.000000 0.000000 0.000000 -154.999177 45.438195 176.725845 -90.287765 -7.409941 -43.355712 79.132618 10.463933 -16.456385 -19.681759 -23.229105 56.863511 -23.816656 4.292613 -18.906783 0.000000 0.000000 0.000000 -162.692333 75.332765 -167.302123 32.276660 13.668021 21.344287 5.028737 14.981820 3.218088 0.539807 7.232768 -0.969438 0.000000 0.000000 0.000000 13.344039 16.768705 0.041073 -13.747900 41.164392 54.174492 -171.660727 11.234874 -162.323721 0.000000 0.000000 0.000000 29.195189 12.863934 1.493342 8.889189 -8.704745 13.534956 -24.469168 1.069397 -3.273737 -31.985527 -69.068574 -18.244689 7.184285 19.370005 5.477060 0.000000 0.000000 0.000000 33.035077 12.603746 -14.560987 -6.395364 4.277938 -6.217643 -19.946773 -21.475373 20.616168 -57.663893 8.065640 2.210307 28.292389 48.470250 7.712938 0.000000 0.000000 0.000000 
112.590454 74.844391 234.696686 0.000000 0.000000 0.000000 -130.947253 46.635036 -179.814702 -90.730163 -19.940681 16.469038 76.295829 -5.848595 -24.831294 11.134243 7.103629 8.511144 -44.065925 -14.991259 6.164933 0.000000 0.000000 0.000000 -142.109244 31.629995 173.186017 -97.475665 -5.294804 -36.768776 70.092535 7.946409 -13.186084 -15.831883 -16.255348 57.713207 -20.098971 3.002059 -21.398001 0.000000 0.000000 0.000000 -123.802069 58.945905 160.852649 30.315576 11.595012 20.049663 3.172727 14.925485 3.359029 0.787187 6.426892 -1.197410 0.000000 0.000000 0.000000 10.292567 17.559417 0.204207 -13.571142 36.818135 54.457139 -164.525679 14.465296 -174.437758 0.000000 0.000000 0.000000 29.306443 13.105565 1.780530 9.266080 -9.097934 13.330157 -25.833340 5.986212 -5.423018 -33.487045 -60.997954 -16.214586 3.121716 6.503929 6.745017 0.000000 0.000000 0.000000 33.232842 13.040347 -15.154325 -4.157999 14.483993 -4.493571 -18.368298 -19.270648 25.505234 -53.543707 1.403229 -2.904444 34.609214 63.905381 0.981634 0.000000 0.000000 0.000000 
122.913307 68.408485 248.674194 0.000000 0.000000 0.000000 -120.913664 37.440461 171.060817 -105.716261 -20.186399 11.624739 77.812056 -17.496336 -13.734834 30.168580 2.107328 1.794963 -35.107483 -12.123956 2.796620 0.000000 0.000000 0.000000 -131.594646 26.559956 169.291744 -104.655737 -1.881363 -29.270195 58.387066 3.687620 -8.913227 -9.663217 -7.683868 55.445420 -14.064712 1.164829 -23.332947 0.000000 0.000000 0.000000 -115.427492 44.687520 156.440073 29.398084 8.262513 19.442557 1.136052 13.066113 2.849826 0.535701 4.484252 -1.056953 0.000000 0.000000 0.000000 6.450257 16.898663 0.392636 -14.753036 34.836922 55.915009 -152.878977 11.808707 173.053812 0.000000 0.000000 0.000000 29.546528 11.575908 1.385292 9.323458 -7.259220 10.468083 -28.410425 9.928284 -6.394515 -31.712872 -52.449880 -13.098429 3.949054 -9.169070 8.771402 0.000000 0.000000 0.000000 31.440337 12.019683 -15.415134 -1.044822 25.269031 -3.512456 -13.257983 -21.172325 28.799441 -51.369685 -4.384690 -7.339346 42.776754 77.343293 -7.713168 0.000000 0.000000 0.000000 
132.430634 60.442848 262.440979 0.000000 0.000000 0.000000 -116.391888 31.765318 163.799288 -114.374011 -19.976717 7.412412 83.901982 -27.541310 -1.036739 42.291199 -4.486139 -2.126225 -24.821582 -8.965007 -2.579325 0.000000 0.000000 0.000000 -121.930119 26.691466 163.393220 -112.106231 2.365555 -20.328571 50.306314 -2.219055 -4.289340 -3.084836 0.199982 49.076002 -8.926719 -0.274681 -25.331660 0.000000 0.000000 0.000000 -113.671737 35.698937 155.804196 29.803407 4.257705 19.570136 -1.087804 9.978709 1.839551 -0.120684 2.809865 -0.659522 0.000000 0.000000 0.000000 2.140661 14.835912 0.267972 -16.985456 34.315065 57.968505 -138.421679 2.400646 162.320757 0.000000 0.000000 0.000000 29.143741 8.804597 0.563556 9.283648 -4.137954 4.742497 -30.754136 11.746845 -6.626779 -26.857771 -47.104106 -10.794591 9.816286 -22.303293 12.455940 0.000000 0.000000 0.000000 28.469294 9.937170 -15.427502 2.434044 34.688639 -3.361679 -4.537909 -24.341759 28.970691 -50.402435 -8.129528 -10.095848 91.577694 87.081135 -57.320607 0.000000 0.000000 0.000000 
141.359314 52.720005 276.584778 0.000000 0.000000 0.000000 -113.791320 28.943511 157.198785 -113.463068 -18.603321 5.509429 90.029639 -31.955255 10.539246 44.339443 -8.405698 -5.063969 -20.106743 -6.084363 -8.399038 0.000000 0.000000 0.000000 -112.157061 28.467392 155.452428 -120.001301 6.713406 -10.163549 51.841856 -8.120552 0.923105 3.248927 6.355641 39.553458 -7.021645 -0.706888 -27.778048 0.000000 0.000000 0.000000 -112.941262 30.263571 155.440707 31.174080 0.241414 19.922456 -3.482912 6.570762 0.689176 -0.434276 2.111273 -0.194670 0.000000 0.000000 0.000000 -2.219347 11.841172 -0.459382 -19.880295 33.437895 60.232815 -122.828070 -12.878941 156.641892 0.000000 0.000000 0.000000 27.813942 5.666529 -0.264486 9.393290 -0.575136 -2.947343 -32.723395 11.071309 -6.942471 -16.129002 -45.976155 -7.298084 17.983630 -30.261986 16.477982 0.000000 0.000000 0.000000 25.242009 7.383283 -15.219096 6.048472 41.464299 -3.926505 3.321897 -24.737248 24.630767 -50.105113 -9.426264 -10.529455 -174.037168 83.805178 -152.556769 0.000000 0.000000 0.000000 
149.812927 47.150833 290.120544 0.000000 0.000000 0.000000 -111.726165 27.994755 152.089147 -103.304521 -15.422828 7.618811 91.616292 -32.107770 18.022383 39.166279 -8.670721 -9.256194 -24.145776 -3.008761 -12.283828 0.000000 0.000000 0.000000 -104.174066 27.977148 147.263673 -127.874310 10.686831 0.066913 65.411663 -10.195966 7.025702 9.046540 10.774890 28.178996 -9.265235 0.236133 -30.328939 0.000000 0.000000 0.000000 -112.393754 26.506960 155.519009 32.719072 -3.112726 20.033035 -6.047186 3.581773 -0.304009 -0.287531 2.658343 0.178020 0.000000 0.000000 0.000000 -5.718415 8.699134 -1.777937 -22.732903 30.853392 62.067657 -106.395578 -30.019733 158.395789 0.000000 0.000000 0.000000 25.341436 2.911317 -0.558573 9.478749 2.233707 -10.816413 -32.326394 8.087128 -6.998344 0.576644 -46.460641 -0.311103 23.920007 -34.585421 17.920644 0.000000 0.000000 0.000000 22.055625 4.757686 -14.604821 9.628243 44.402114 -5.057989 6.862541 -22.604969 15.730353 -49.108681 -8.988580 -8.135227 -174.439029 82.265025 -152.653826 0.000000 0.000000 0.000000 
157.290451 45.199535 300.560638 0.000000 0.000000 0.000000 -110.512884 26.606442 150.341493 -88.103157 -8.527249 14.080005 87.039197 -29.720936 19.652831 32.196364 -5.455364 -13.244285 -34.287833 0.153452 -12.917524 0.000000 0.000000 0.000000 -100.211347 24.985621 142.577644 -134.547555 13.732787 9.456817 84.151995 -7.247725 11.548038 14.093866 13.621879 16.411000 -14.483609 2.302178 -32.208864 0.000000 0.000000 0.000000 -111.049320 24.560635 155.691116 33.341107 -5.473932 19.334128 -8.716097 1.155356 -1.085245 -0.048654 3.616239 0.057611 0.000000 0.000000 0.000000 -7.416631 5.748636 -3.467893 -25.277284 25.876971 63.113646 -88.327658 -43.412290 168.976667 0.000000 0.000000 0.000000 21.643114 0.844675 -0.044711 9.029115 3.731212 -17.009715 -27.808243 4.070172 -7.145626 18.660775 -43.807512 8.560110 25.663251 -40.378562 16.212438 0.000000 0.000000 0.000000 19.130667 2.128244 -13.670878 13.215573 43.544023 -6.954243 5.094802 -18.059210 5.836757 -48.081844 -8.097757 -4.051697 156.179993 84.628742 -123.485490 0.000000 0.000000 0.000000 
163.383301 46.650757 307.987671 0.000000 0.000000 0.000000 -110.372906 24.284779 151.705619 -74.402289 0.982293 21.326349 77.895794 -26.027522 17.256936 28.704700 -0.029026 -15.793626 -40.572519 2.008479 -11.358324 0.000000 0.000000 0.000000 -99.188998 19.216037 142.757114 -139.158944 16.218257 17.742516 99.128680 -2.764283 12.155198 18.904862 14.316718 4.793733 -20.923357 4.714052 -32.737920 0.000000 0.000000 0.000000 -107.998541 24.022264 155.914490 32.439007 -6.597805 17.259384 -11.325689 -1.093445 -1.748751 0.268993 4.420350 -0.300525 0.000000 0.000000 0.000000 -7.275575 3.071541 -5.149063 -27.396976 19.127388 63.020803 -71.638542 -50.082789 -175.074838 0.000000 0.000000 0.000000 17.721138 -0.929335 1.243811 7.872688 3.542845 -19.610499 -22.243215 2.163724 -7.177015 32.768191 -36.013566 14.471349 23.631917 -52.128017 12.500848 0.000000 0.000000 0.000000 15.917587 -0.643279 -12.668526 16.518133 39.505609 -9.277479 0.155027 -12.921505 -0.262283 -48.026905 -8.762120 -0.212894 88.158986 83.623850 -55.481528 0.000000 0.000000 0.000000 
167.127396 50.206703 313.885895 0.000000 0.000000 0.000000 -110.223653 21.592613 154.481776 -65.894305 9.739256 27.122227 63.807129 -22.138257 11.975109 30.955705 5.307261 -17.850732 -34.990598 2.551526 -9.790095 0.000000 0.000000 0.000000 -100.196327 12.525460 146.140517 -141.328703 19.329418 25.603429 106.545835 0.729358 10.398791 23.079310 12.374965 -5.570390 -26.836148 6.766104 -31.887401 0.000000 0.000000 0.000000 -103.972944 24.421232 156.230714 30.277266 -6.394325 14.148698 -13.578056 -3.507809 -2.656749 0.347851 4.875205 -0.680861 0.000000 0.000000 0.000000 -5.720969 0.660126 -6.504438 -29.069125 12.202590 61.960983 -60.996799 -51.446925 -159.549380 0.000000 0.000000 0.000000 14.123111 -2.881295 2.702893 6.034534 1.417395 -18.107122 -16.357489 1.962055 -6.703949 41.885903 -24.749064 15.131678 16.333677 -69.428067 4.935146 0.000000 0.000000 0.000000 12.047913 -3.686387 -12.033332 19.402773 33.129607 -12.398929 -6.619313 -9.229413 -2.012730 -49.532296 -12.494591 0.917436 69.280508 80.062234 -36.926004 0.000000 0.000000 0.000000 
